<svg width="153" height="39" viewBox="0 0 153 39" fill="none" xmlns="http://www.w3.org/2000/svg">
<path d="M57.2881 16.3603C57.0541 15.2983 56.7481 14.6323 56.1721 13.8943C55.0021 12.3283 53.1841 11.5363 50.8621 11.5363C48.7561 11.5363 46.9381 12.2023 45.6961 13.4083C44.2741 14.8123 43.5181 16.8823 43.5181 19.3303C43.5181 21.7423 44.2741 23.8483 45.6061 25.1983C46.8841 26.4943 48.7381 27.1783 50.9341 27.1783C53.1121 27.1783 54.8581 26.4943 55.9741 25.2163C56.7301 24.3343 57.1261 23.4523 57.4681 21.9223L53.7241 21.3643C53.6161 22.1203 53.4901 22.4803 53.1841 22.9123C52.6621 23.6323 51.8161 24.0463 50.8261 24.0463C48.5941 24.0463 47.2621 22.2643 47.2621 19.3303C47.2621 16.3603 48.5401 14.6323 50.7361 14.6323C52.2841 14.6323 53.2381 15.4423 53.5801 17.0803L57.2881 16.3603ZM64.4652 27.2503C68.0472 27.2503 70.4232 24.8743 70.4232 21.2923C70.4232 17.7283 68.1192 15.4423 64.4832 15.4423C60.8472 15.4423 58.5432 17.7283 58.5432 21.3283C58.5432 24.9463 60.8472 27.2503 64.4652 27.2503ZM64.5012 18.1423C66.0312 18.1423 66.9492 19.3303 66.9492 21.3463C66.9492 23.3443 66.0492 24.5143 64.4832 24.5143C62.9172 24.5143 61.9812 23.3083 61.9812 21.3103C61.9812 19.3303 62.9172 18.1423 64.5012 18.1423ZM73.5703 18.6283V24.1183C73.5703 25.2883 73.5343 25.9543 73.4263 26.8363H77.1703C77.0623 25.9543 77.0263 25.3603 77.0263 24.1183V18.6283H77.5843C78.5923 18.6283 79.1863 18.6643 79.9423 18.7543V15.7303C79.2763 15.8023 78.3043 15.8563 77.5483 15.8563H77.0263V15.4063C77.0263 14.4703 77.3683 14.1103 78.2503 14.1103C78.9343 14.1103 79.4743 14.2543 80.0323 14.5603L80.5903 11.9143C79.6003 11.6443 78.8623 11.5363 77.8543 11.5363C74.9203 11.5363 73.5703 12.6343 73.5703 15.0103V15.8563H73.0843C72.4003 15.8563 71.5723 15.8023 71.0683 15.7303V18.7543C71.6803 18.6643 72.2383 18.6283 73.0843 18.6283H73.5703ZM83.3614 18.6283V24.1183C83.3614 25.2883 83.3254 25.9543 83.2174 26.8363H86.9614C86.8534 25.9543 86.8174 25.3603 86.8174 24.1183V18.6283H87.3754C88.3834 18.6283 88.9774 18.6643 89.7334 18.7543V15.7303C89.0674 15.8023 88.0954 15.8563 87.3394 15.8563H86.8174V15.4063C86.8174 14.4703 87.1594 14.1103 88.0414 14.1103C88.7254 14.1103 89.2654 14.2543 89.8234 14.5603L90.3814 11.9143C89.3914 11.6443 88.6534 11.5363 87.6454 11.5363C84.7114 11.5363 83.3614 12.6343 83.3614 15.0103V15.8563H82.8754C82.1914 15.8563 81.3634 15.8023 80.8594 15.7303V18.7543C81.4714 18.6643 82.0294 18.6283 82.8754 18.6283H83.3614ZM102.404 22.3543C102.386 22.1743 102.386 22.0663 102.386 21.9943C102.332 20.9683 102.26 20.2123 102.116 19.6363C101.486 16.9543 99.5244 15.4243 96.7164 15.4243C93.2784 15.4243 90.9924 17.7823 90.9924 21.3463C90.9924 23.1283 91.5684 24.6583 92.6304 25.7383C93.6564 26.7643 95.0424 27.2683 96.8064 27.2683C98.5884 27.2683 100.028 26.7463 101.054 25.7383C101.558 25.2343 101.828 24.8203 102.242 23.8843L99.1104 23.0023C98.9664 23.4703 98.8404 23.6683 98.5704 23.9203C98.1024 24.3523 97.4724 24.5863 96.7524 24.5863C95.3304 24.5863 94.4844 23.8123 94.3044 22.3543H102.404ZM94.3584 19.8703C94.6644 18.6823 95.4384 18.1063 96.7164 18.1063C97.9584 18.1063 98.7324 18.7183 98.9844 19.8703H94.3584ZM114.797 22.3543C114.779 22.1743 114.779 22.0663 114.779 21.9943C114.725 20.9683 114.653 20.2123 114.509 19.6363C113.879 16.9543 111.917 15.4243 109.109 15.4243C105.671 15.4243 103.385 17.7823 103.385 21.3463C103.385 23.1283 103.961 24.6583 105.023 25.7383C106.049 26.7643 107.435 27.2683 109.199 27.2683C110.981 27.2683 112.421 26.7463 113.447 25.7383C113.951 25.2343 114.221 24.8203 114.635 23.8843L111.503 23.0023C111.359 23.4703 111.233 23.6683 110.963 23.9203C110.495 24.3523 109.865 24.5863 109.145 24.5863C107.723 24.5863 106.877 23.8123 106.697 22.3543H114.797ZM106.751 19.8703C107.057 18.6823 107.831 18.1063 109.109 18.1063C110.351 18.1063 111.125 18.7183 111.377 19.8703H106.751ZM123.302 26.4943C126.29 26.4943 127.964 25.0723 127.964 22.5523C127.964 21.3823 127.586 20.4823 126.848 19.7983C126.362 19.3483 125.948 19.1683 125.03 18.9703C125.732 18.7543 126.056 18.5923 126.452 18.2143C127.136 17.5843 127.46 16.7743 127.46 15.6763C127.46 13.4263 125.894 12.1663 123.104 12.1663H118.856C117.632 12.1663 117.344 12.1663 116.588 12.1303C116.678 12.8683 116.732 13.5163 116.732 14.3443V24.1183C116.732 25.2703 116.696 25.7923 116.57 26.5483C117.308 26.5123 117.83 26.4943 118.874 26.4943H123.302ZM119.108 18.0343V14.1823H122.834C123.554 14.1823 124.166 14.3803 124.562 14.7403C124.85 15.0103 125.03 15.4963 125.03 16.0723C125.03 17.2963 124.22 18.0343 122.852 18.0343H119.108ZM119.108 20.0323H122.942C123.77 20.0323 124.454 20.2483 124.904 20.6443C125.3 21.0043 125.48 21.4903 125.48 22.2103C125.48 23.6683 124.58 24.4603 122.978 24.4603H119.108V20.0323ZM134.928 26.8363C138.132 26.8363 140.238 24.6403 140.238 21.3103C140.238 17.9803 138.168 15.8563 134.91 15.8563C131.634 15.8563 129.546 17.9983 129.546 21.3463C129.546 24.7123 131.634 26.8363 134.928 26.8363ZM134.91 17.7283C136.818 17.7283 137.916 19.0603 137.916 21.3823C137.916 23.5783 136.764 24.9283 134.892 24.9283C133.02 24.9283 131.868 23.5603 131.868 21.3463C131.868 19.0963 133.02 17.7283 134.91 17.7283ZM151.774 26.4943C151.288 25.9003 150.694 25.1263 150.442 24.7663L147.814 21.0943L150.244 17.7103C150.532 17.2963 150.82 16.9003 151.396 16.1623H148.606C148.426 16.5763 148.174 17.0443 147.85 17.5303L146.482 19.5463L145.096 17.5303C144.79 17.0803 144.556 16.6483 144.34 16.1623H141.532C142.342 17.2063 142.486 17.4043 142.684 17.6743L145.132 21.0943L142.432 24.8743C142.126 25.2883 141.568 26.0083 141.172 26.4943H144.07C144.394 25.8283 144.556 25.5583 144.844 25.1263L146.464 22.7143L148.03 25.0183C148.39 25.5403 148.57 25.8643 148.876 26.4943H151.774Z" fill="white"/>
<path d="M37.6457 13.3131L36.8046 10.9135C36.7245 10.7324 36.6044 10.5966 36.4041 10.5966H34.4817V9.82687C34.4817 9.05719 33.921 8.42334 33.2001 8.42334H25.9911C25.3102 8.42334 24.7495 9.05719 24.7495 9.82687V10.5966H22.7871C22.6269 10.5966 22.4667 10.7324 22.3866 10.9135L21.5455 13.3131C21.5054 13.4489 21.5054 13.63 21.5855 13.7658C21.6656 13.9017 21.7858 13.9922 21.946 13.9922H22.4266L22.8271 16.7993H22.4266C22.3065 16.7993 22.1863 16.8445 22.1062 16.9804C22.0261 17.0709 21.9861 17.2068 22.0261 17.3426L23.1075 25.0847C23.1475 25.311 23.3077 25.4921 23.508 25.4921H23.9886L24.4344 28.732L34.6379 28.7228L35.0824 25.4921H35.563C35.7633 25.4921 35.9635 25.311 35.9635 25.0847L37.0449 17.3426C37.0449 17.2068 37.0449 17.0709 36.9648 16.9804C36.8847 16.8898 36.7646 16.7993 36.6444 16.7993H36.4041L36.8046 13.9922H37.2852C37.4054 13.9922 37.5656 13.9017 37.6457 13.7658C37.6857 13.5847 37.6857 13.4489 37.6457 13.3131ZM25.5505 9.82687C25.5505 9.55522 25.7508 9.37412 25.951 9.37412H33.2001C33.4404 9.37412 33.6006 9.6005 33.6006 9.82687V10.5966H25.5505V9.82687ZM25.1831 27.741L24.8697 25.4469H34.3215L34.0078 27.7429L25.1831 27.741ZM35.3227 24.4961H23.8684L22.9072 17.7048H36.2439L35.3227 24.4961ZM23.2677 13.9469H35.9235L35.523 16.754H23.6682L23.2677 13.9469ZM22.5468 12.9961L23.0674 11.5473H36.1237L36.6444 12.9961H22.5468Z" fill="white"/>
<path d="M28.0737 23.681C29.0749 24.4054 30.5167 23.7715 31.3177 22.368C32.1588 20.9192 32.0386 19.1987 31.0774 18.4743C30.1162 17.7499 28.6344 18.3385 27.8334 19.7873C27.0324 21.1908 27.0724 22.9566 28.0737 23.681ZM31.0774 20.2401C31.1175 20.7381 30.9973 21.3267 30.6769 21.87C30.0762 22.9113 28.9948 23.4093 28.4341 22.7755C28.6744 22.1869 29.0749 21.7794 29.5155 21.6436C29.5555 21.6436 29.6757 21.5983 29.7157 21.5983C30.2764 21.4172 30.8371 20.9645 31.0774 20.2401ZM28.5543 20.3306C29.115 19.3345 30.1963 18.746 30.7971 19.4704C30.5167 20.1495 30.0762 20.557 29.5155 20.6475C29.3953 20.6928 29.3553 20.6928 29.2351 20.7381C28.8346 20.8739 28.354 21.3267 28.1538 21.9605C28.0737 21.3719 28.2739 20.8286 28.5543 20.3306Z" fill="white"/>
<path d="M16.3132 13.3131L15.4721 10.9135C15.392 10.7324 15.2719 10.5966 15.0716 10.5966H13.1492V9.82687C13.1492 9.05719 12.5885 8.42334 11.8676 8.42334H4.65857C3.97771 8.42334 3.41701 9.05719 3.41701 9.82687V10.5966H1.45455C1.29435 10.5966 1.13415 10.7324 1.05405 10.9135L0.213 13.3131C0.17295 13.4489 0.17295 13.63 0.25305 13.7658C0.333151 13.9017 0.453301 13.9922 0.613502 13.9922H1.0941L1.4946 16.7993H1.0941C0.973953 16.7993 0.853803 16.8445 0.773702 16.9804C0.693602 17.0709 0.653552 17.2068 0.693602 17.3426L1.77496 25.0847C1.81501 25.311 1.97521 25.4921 2.17546 25.4921H2.65606L3.10187 28.732L13.3054 28.7228L13.7499 25.4921H14.2305C14.4308 25.4921 14.6311 25.311 14.6311 25.0847L15.7124 17.3426C15.7124 17.2068 15.7124 17.0709 15.6323 16.9804C15.5522 16.8898 15.4321 16.7993 15.3119 16.7993H15.0716L15.4721 13.9922H15.9527C16.0729 13.9922 16.2331 13.9017 16.3132 13.7658C16.3532 13.5847 16.3532 13.4489 16.3132 13.3131ZM4.21801 9.82687C4.21801 9.55522 4.41826 9.37412 4.61852 9.37412H11.8676C12.1079 9.37412 12.2681 9.6005 12.2681 9.82687V10.5966H4.21801V9.82687ZM3.85064 27.741L3.53716 25.4469H12.989L12.6753 27.7429L3.85064 27.741ZM13.9902 24.4961H2.53591L1.57471 17.7048H14.9114L13.9902 24.4961ZM1.93516 13.9469H14.591L14.1905 16.754H2.33566L1.93516 13.9469ZM1.21425 12.9961L1.73491 11.5473H14.7913L15.3119 12.9961H1.21425Z" fill="white"/>
<path d="M6.74117 23.681C7.74243 24.4054 9.18423 23.7715 9.98523 22.368C10.8263 20.9192 10.7061 19.1987 9.74493 18.4743C8.78373 17.7499 7.30187 18.3385 6.50087 19.7873C5.69987 21.1908 5.73992 22.9566 6.74117 23.681ZM9.74493 20.2401C9.78498 20.7381 9.66483 21.3267 9.34443 21.87C8.74368 22.9113 7.66233 23.4093 7.10162 22.7755C7.34192 22.1869 7.74243 21.7794 8.18298 21.6436C8.22303 21.6436 8.34318 21.5983 8.38323 21.5983C8.94393 21.4172 9.50463 20.9645 9.74493 20.2401ZM7.22177 20.3306C7.78248 19.3345 8.86383 18.746 9.46458 19.4704C9.18423 20.1495 8.74368 20.557 8.18298 20.6475C8.06283 20.6928 8.02278 20.6928 7.90263 20.7381C7.50212 20.8739 7.02152 21.3267 6.82127 21.9605C6.74117 21.3719 6.94142 20.8286 7.22177 20.3306Z" fill="white"/>
<path d="M17.1916 28.2408L17.1861 27.7377L18.1857 1.80467L18.1861 1.79504V1.78541C18.1861 1.50451 18.4121 1.28076 18.6861 1.28076H19.6861C19.96 1.28076 20.1861 1.50451 20.1861 1.78541V1.79504L20.1865 1.80467L21.186 27.7377L21.1806 28.2408H21.686H37.1861C37.4622 28.2408 37.6861 28.4646 37.6861 28.7408V37.776C37.6861 38.0521 37.4622 38.276 37.1861 38.276H1.18607C0.909931 38.276 0.686073 38.0521 0.686073 37.776V28.7408C0.686073 28.4646 0.909931 28.2408 1.18607 28.2408H16.6861H17.1916Z" stroke="white"/>
<path d="M29.83 35.0076L22.5592 35.0076M34.5399 35.0076L30.9043 35.0076" stroke="white" stroke-linecap="round"/>
</svg>
